<?xml version="1.0" standalone="no"?>
<svg xmlns="http://www.w3.org/2000/svg" viewBox="0 0 51.872 59.896" width="51.872" height="59.896"><polygon fill="#353434" points="51.872,14.974 51.872,44.922 25.936,59.896 0,44.922 0,14.974 25.936,0"></polygon><path fill="white" fill-rule="nonzero" d="M3.11 5.80L3.11 15.75Q2.54 15.68 0.94 15.68L0.94 15.68L0 15.68L0 0.05Q0.75 0.09 1.65 0.09Q2.55 0.09 2.93 0L2.93 0L6.87 6.69L10.65 0Q11.03 0.09 12.08 0.09Q13.14 0.09 13.89 0.05L13.89 0.05L13.89 15.68L12.95 15.68Q11.34 15.68 10.78 15.75L10.78 15.75L10.78 5.25L6.95 12.11L3.11 5.80ZM21.04 12.87L25.82 12.87Q26.54 12.87 26.82 12.73L26.82 12.73L26.87 12.74L26.75 15.68L17.98 15.68L17.98 0.01Q18.29 0.04 18.68 0.05L18.68 0.05L19.50 0.07Q20.32 0.09 21.28 0.09L21.28 0.09Q23.96 0.09 26.59 0L26.59 0Q26.46 1.03 26.46 2.75L26.46 2.75Q26.46 2.94 26.48 3.04L26.48 3.04L26.46 3.07Q25.85 2.89 24.73 2.89L24.73 2.89L21.04 2.89L21.04 5.88L23.81 5.88Q25.10 5.88 25.36 5.81L25.36 5.81L25.39 8.71Q24.83 8.65 23.94 8.65L23.94 8.65L21.04 8.65L21.04 12.87Z" transform="translate(12.501, 22.073)"></path></svg>